# xmcd
#
# Track frame offsets:
# 150
# 14477
# 29464
# 48054
# 64439
# 80979
# 95857
# 111669
# 124297
# 143534
# 159297
# 177059
# 191099
# 208207
#
# Disc length: 2927 seconds
#
#
# Revision: 0
# Processed by: cddbd v1.5.2PL0 Copyright (c) Steve Scherf et al.
# Submitted via: FreeRIP 2.96 
#
DISCID=d10b6d0e
DTITLE=GIAN E GIOVANI - SUPER 3 - CD1 - SUPER 3
DYEAR=1900
DGENRE=
TTITLE0=AMANTE ANONIMO
TTITLE1=VOCÊ EM MINHA VIDA
TTITLE2=VOCÊ VAI ME PERDOAR
TTITLE3=NEM DORMINDO CONSIGO TE ESQYECER
TTITLE4=CAÇADOR DE CORAÇÕES
TTITLE5=NA RUA
TTITLE6=POR QUE SERÁ
TTITLE7=COSPE GROSSO
TTITLE8=NUNCA MAIS VOU ESQUECER
TTITLE9=DE QUE PLANETA VOCÊ VEIO
TTITLE10=PELE DE MAÇA
TTITLE11=É HORA DE RECOMEÇAR
TTITLE12=ME CHAMA DE VOLTA
TTITLE13=ESTOU DE OLHO EM VOCÊ
EXTD=
EXTT0=
EXTT1=
EXTT2=
EXTT3=
EXTT4=
EXTT5=
EXTT6=
EXTT7=
EXTT8=
EXTT9=
EXTT10=
EXTT11=
EXTT12=
EXTT13=
PLAYORDER=
